<?xml version="1.0" encoding="UTF-8"?>
<svg version="1.1" viewBox="0 0 1600 1600" width="1280" height="1280" xmlns="http://www.w3.org/2000/svg">
<path transform="translate(75.3 -.745)" d="m0 0c1.39-0 2.78-0.01 4.17-0.02 3.75-0.02 7.5 0 11.2 0.02 3.96 0.03 7.92 0.02 11.9 0.02 6.66-0.01 13.3 0.02 20 0.05 7.62 0.04 15.2 0.05 22.9 0.04 7.4-0.01 14.8 0 22.2 0.02 3.12 0.01 6.24 0.01 9.35 0.01 50.8-0.04 97.8 12 136 47.4 2.29 2.17 2.29 2.17 4.69 3.83 0.56 0.44 1.11 0.88 1.69 1.33v2h2c1.44 1.57 2.8 3.21 4.12 4.88 0.81 1.01 1.62 2.03 2.45 3.07 0.8 1.01 1.6 2.02 2.43 3.05 0.68 0.81 1.35 1.61 2.05 2.43 11.7 14 20.2 30.9 26.6 47.8 0.34 0.9 0.68 1.79 1.03 2.72 4.43 11.8 8.36 23.8 12.3 35.7 0.88 2.64 1.75 5.29 2.63 7.93 5.85 17.6 11.6 35.3 17.4 52.9 6.02 18.6 12.2 37.1 18.4 55.6 2.2 6.56 4.38 13.1 6.57 19.7 0.61 1.84 1.22 3.68 1.84 5.52 0.4 1.21 0.8 2.42 1.22 3.66 14.3 0.95 28.6 1.28 43 1.5 2.43 0.05 4.86 0.09 7.29 0.13 6.49 0.1 13 0.21 19.5 0.31 4.07 0.06 8.14 0.13 12.2 0.2 33.9 0.55 67.8 1.04 102 1.39 32.5 0.34 65 0.92 97.4 1.54 33.8 0.65 67.6 1.15 101 1.46 32.8 0.3 65.5 0.84 98.3 1.47 33 0.64 66 1.19 98.9 1.5 34.3 0.34 68.6 0.88 103 1.5 34.9 0.64 69.8 1.19 105 1.53 33.9 0.33 67.7 0.91 102 1.54 34.1 0.64 68.2 1.14 102 1.46 52.2 0.49 104 1.49 157 2.47-0.51 6.07-1.27 11.8-2.7 17.8-0.25 1.07-0.25 1.07-0.51 2.16-0.56 2.35-1.13 4.69-1.7 7.04-0.41 1.68-0.81 3.36-1.21 5.04-0.86 3.59-1.72 7.17-2.59 10.8-1.37 5.68-2.74 11.4-4.1 17.1-0.46 1.92-0.92 3.85-1.39 5.78-0.34 1.44-0.34 1.44-0.69 2.9-0.7 2.92-1.4 5.83-2.1 8.75-3.95 16.5-7.85 33-11.7 49.4-0.8 3.42-1.61 6.85-2.41 10.3-0.33 1.38-0.65 2.75-0.97 4.12-0.16 0.69-0.32 1.37-0.49 2.07-0.48 2.06-0.96 4.12-1.45 6.18-3.9 16.6-7.81 33.2-11.7 49.8-0.18 0.76-0.36 1.52-0.55 2.31-5.15 21.8-10.3 43.6-15.6 65.4-0.47 1.94-0.94 3.88-1.4 5.82-0.23 0.94-0.46 1.87-0.69 2.84-1.62 6.73-3.22 13.5-4.81 20.2-0.34 1.43-0.34 1.43-0.69 2.88-1.05 4.45-2.1 8.9-3.15 13.3-1.91 8.1-3.89 16.2-5.99 24.2-0.3 1.15-0.3 1.15-0.6 2.32-5.4 20.5-14.6 38-27.8 54.5-0.74 0.93-1.47 1.86-2.23 2.82-1.81 2.23-3.64 4.26-5.77 6.18h-2l-1 3c-1.45 1.41-1.45 1.41-3.33 2.86-0.69 0.54-1.38 1.07-2.09 1.62-1.12 0.85-1.12 0.85-2.27 1.71-0.77 0.58-1.54 1.17-2.34 1.76-21.5 16-44.4 22.6-70.7 25.9-1 0.13-1 0.13-2.02 0.26-16.9 2.16-33.8 3.85-50.7 5.54-7.67 0.77-15.3 1.55-23 2.33-2.07 0.21-4.14 0.42-6.21 0.63-26.6 2.69-53.2 5.47-79.8 8.24-7.51 0.78-15 1.56-22.5 2.34-2.7 0.29-5.41 0.57-8.12 0.85-0.67 0.07-1.33 0.14-2.02 0.21-4.64 0.48-9.29 0.97-13.9 1.45-21 2.18-41.9 4.36-62.9 6.53-0.81 0.09-1.61 0.17-2.44 0.26-26 2.69-52 5.35-78 8.01-2.52 0.26-5.04 0.51-7.56 0.77-3.43 0.35-6.86 0.7-10.3 1.05-7.98 0.82-16 1.64-23.9 2.45-1.79 0.19-3.59 0.37-5.39 0.55-61.7 6.31-123 12.7-185 19.1-5.46 0.57-10.9 1.13-16.4 1.7-1.52 0.16-3.04 0.32-4.57 0.48-20.8 2.16-41.6 4.32-62.4 6.46-1.72 0.17-1.72 0.17-3.46 0.35-10.4 1.07-20.7 2.13-31.1 3.19-16.8 1.73-33.7 3.47-50.5 5.31-1.59 0.18-3.19 0.35-4.78 0.52-2.18 0.24-4.35 0.48-6.53 0.72-1.23 0.14-2.46 0.27-3.73 0.41-3.04 0.33-3.04 0.33-5.99 1.41 0.26 0.67 0.52 1.34 0.79 2.02 1.2 3.04 2.39 6.07 3.58 9.11 0.42 1.05 0.83 2.09 1.25 3.17 0.4 1.02 0.8 2.04 1.21 3.09 0.55 1.4 0.55 1.4 1.11 2.82 8.69 23-0.55 41.9-9.48 63.3-13.3 30.8-13.3 30.8-18.5 63.5-0.07 0.95-0.15 1.9-0.22 2.87-1.31 25.2 9.96 49.5 26.2 68.1 0.57 0.74 1.13 1.48 1.72 2.25 15.7 20 42.2 27.8 66.3 30.8 4.45 0.26 8.88 0.27 13.3 0.26h3.89c3.54 0.01 7.08 0.01 10.6 0 3.86-0.01 7.72 0 11.6 0.01h20.3c10-0.01 20.1-0.01 30.1 0 16.9 0.01 33.8 0.01 50.7 0.01 24.1 0 48.3 0.01 72.4 0.03 9.7 0 19.4 0.01 29.1 0.01 1.08 0.01 2.15 0.01 3.26 0.01l76.9 0.03h3.39c26.2 0.01 52.3 0.02 78.5 0.02h3.41 17c1.13 0 2.25 0.01 3.4 0.01h6.8c37.4 0 74.8 0.02 112 0.05 5.27 0 10.6 0.01 15.8 0.01h3.15c16.7 0.02 33.5 0.01 50.2 0.01 16.8-0.01 33.6-0.01 50.4 0.02 9.99 0.01 20 0.01 30-0.01 6.67-0.01 13.3 0 20 0.02 3.8 0.01 7.6 0.01 11.4-0.01 4.1-0.01 8.19 0 12.3 0.02 1.18-0.01 2.36-0.02 3.57-0.03 11.3 0.11 20.2 3.6 28.4 11.5 2.66 3.17 4.9 6.44 7 10 0.36 0.61 0.72 1.21 1.1 1.82 3.54 7.35 3.11 18.1 1.24 25.9-0.93 2.26-2.02 4.2-3.34 6.25-0.71 1.25-0.71 1.25-1.44 2.52-5.89 9.46-13.8 14-24.4 16.8-5.41 1.11-10.7 1.05-16.2 1.02-1.92 0.01-1.92 0.01-3.88 0.02-3.55 0.01-7.09 0-10.6-0.01-3.86-0.01-7.72 0-11.6 0.01-6.76 0.01-13.5 0.01-20.3 0-10.1-0.01-20.1 0-30.2 0.01-18 0.01-35.9 0.01-53.9 0-15.7-0.01-31.5-0.01-47.2 0h-3.16-12.7c-39.8 0.01-79.5 0-119-0.02-35.3-0.01-70.6-0.01-106 0.01-39.7 0.01-79.4 0.02-119 0.01h-12.7-3.16c-15.7-0.01-31.4 0-47.1 0-17.9 0.01-35.8 0.01-53.6-0.01-10-0.01-20-0.01-30 0.01-6.7 0-13.4 0-20.1-0.01-3.81-0.01-7.61-0.01-11.4 0-55.3 0.14-102-14.8-142-54.1-22.6-22.7-36.6-51.3-43.9-82.3-0.21-0.89-0.43-1.78-0.64-2.7-5.57-24.7-5.68-52.6-0.36-77.3 0.16-0.76 0.32-1.52 0.49-2.3 3.72-16.9 9.94-33.2 16.6-49.2 0.51-1.26 1.03-2.52 1.55-3.78 1-2.41 2.02-4.8 3.07-7.19 3.08-7.43 3.87-12 1.28-19.6-0.36-1.15-0.73-2.31-1.1-3.5-1.1-3.46-2.26-6.91-3.44-10.4-1.36-3.98-2.7-7.97-4.04-12-0.29-0.83-0.57-1.66-0.86-2.52-3.09-9.19-6.08-18.4-9.06-27.7-4.11-12.7-8.27-25.4-12.5-38-4.52-13.5-8.94-27-13.3-40.5-3.84-11.8-7.73-23.6-11.7-35.5-4.52-13.5-8.94-27-13.3-40.5-3.84-11.8-7.73-23.6-11.7-35.5-4.52-13.5-8.94-27-13.3-40.5-3.84-11.8-7.73-23.6-11.7-35.5-4.52-13.5-8.94-27-13.3-40.5-3.84-11.8-7.73-23.6-11.7-35.5-4.52-13.5-8.94-27-13.3-40.5-3.84-11.8-7.73-23.6-11.7-35.5-4.52-13.5-8.94-27-13.3-40.5-3.84-11.8-7.73-23.6-11.7-35.5-4.52-13.5-8.94-27-13.3-40.5-3.84-11.8-7.73-23.6-11.7-35.5-4.24-12.6-8.39-25.3-12.5-38-4.04-12.5-8.1-24.9-12.2-37.4-0.5-1.52-1.01-3.04-1.51-4.56-5.87-18.3-5.87-18.3-14.3-35.6-0.43-0.71-0.86-1.42-1.3-2.16-11-17.7-27.2-30.1-46.1-38.3-0.96-0.42-1.91-0.84-2.9-1.27-17.3-6.89-35.4-6.17-53.7-6.17-3.85 0-7.7-0.02-11.6-0.04-8.93-0.04-17.9-0.06-26.8-0.07-11.4-0.03-22.8-0.06-34.2-0.11-4.57-0.02-9.14-0.03-13.7-0.03-2.84 0-5.69-0.01-8.53-0.03h-5.8c-12.7-0.07-22.8-2.34-32.7-10.9-8.07-8.8-11.5-18.4-11.3-30.1 0.59-9.46 5.35-18.4 12-25.1 1.99-1.58 4.02-2.86 6.19-4.18 0.84-0.51 1.68-1.02 2.54-1.54 8.07-4.48 14.6-5.31 23.8-5.2z" fill="#000100"/>
<path transform="translate(670,1300)" d="m0 0c0.73 0.61 1.46 1.21 2.21 1.84 4.76 4.02 8.84 8.35 12.8 13.2 0.82 0.99 1.65 1.97 2.5 2.99 28.9 35.3 43 80.4 39 126-4.06 39.3-20.9 78.3-49.5 106h-2v2c-2.43 2.58-5.26 4.75-8 7-0.9 0.75-1.8 1.49-2.72 2.26-34.1 27.3-79.5 42.9-123 38.7-9.82-1.36-19.4-3.56-29-6-0.84-0.2-1.69-0.41-2.56-0.61-23.4-5.65-45.3-17.7-63.4-33.4-0.8-0.69-1.61-1.39-2.44-2.11-2.56-2.25-5.07-4.56-7.56-6.89-0.88-0.81-1.75-1.62-2.65-2.45-30.7-29.5-48.3-72.8-49.5-115-0.39-37.8 9.57-74.7 32.2-105 0.41-0.57 0.83-1.14 1.25-1.73 25-34.5 61.4-57 103-66.3 0.66-0.16 1.33-0.33 2.01-0.5 52.4-12.7 108 6.57 148 40.5z" fill="#000100"/>
<path transform="translate(1280 1257)" d="m0 0h2.24c19.1 0.05 37.4 2.76 55.4 9.38 0.94 0.34 0.94 0.34 1.9 0.69 19.8 7.35 37.1 17.5 53.1 31.3 0.83 0.7 1.66 1.41 2.51 2.14 32.8 28.6 51 68.2 56.5 111 0.78 17.6 1.11 35.8-3 53-0.3 1.29-0.3 1.29-0.6 2.61-3.09 13.2-7.4 25.3-13.4 37.4-0.32 0.66-0.65 1.32-0.98 2-19.8 40.3-56 70.3-98.2 84.7-44.8 14.8-90.8 11.4-133-9.78-39.1-20-70.3-55.2-84.4-97-14.1-44.2-11.8-92 9.3-134 6.48-12.2 14-23.9 23.3-34.2 0.44-0.51 0.88-1.02 1.34-1.54 25.7-29.4 60.3-48.6 98.7-55.5 0.94-0.18 1.88-0.36 2.85-0.54 8.84-1.53 17.5-1.86 26.5-1.84z" fill="#000100"/>
</svg>
