<?xml version="1.0" encoding="UTF-8"?>
<svg version="1.1" viewBox="0 0 1600 1600" width="1280" height="1280" xmlns="http://www.w3.org/2000/svg">
<path transform="translate(46.5 21.6)" d="m0 0c1.29-0 2.59-0.01 3.92-0.01 3.52-0.01 7.04 0 10.6 0.01 3.72 0.01 7.43 0.01 11.2 0.01 6.24 0 12.5 0.01 18.7 0.03 7.16 0.02 14.3 0.02 21.5 0.01 6.94 0 13.9 0 20.8 0.02h8.79c49.6-0.02 92.4 9.49 131 43 1.39 1.22 2.81 2.42 4.22 3.62 6.19 5.36 11.3 11.2 16.3 17.7 0.73 0.92 1.46 1.83 2.21 2.77 18.4 23.5 27.5 51.4 36.6 79.5 0.91 2.82 1.83 5.64 2.75 8.46 6.63 20.4 13.1 40.8 19.5 61.3 43.8 1.04 87.7 1.7 132 2.4 4.23 0.07 8.46 0.14 12.7 0.2 51.8 0.83 104 1.61 155 2.01 33 0.26 66 0.81 99 1.46 36.7 0.73 73.4 1.18 110 1.46 34.4 0.26 68.9 0.75 103 1.47 30.5 0.64 61 1.15 91.6 1.39 1.17 0.01 2.34 0.02 3.55 0.03 5.78 0.04 11.6 0.09 17.3 0.13 31.2 0.24 62.3 0.65 93.5 1.26 42.7 0.82 85.4 1.48 128 2.01 1.27 0.01 2.53 0.03 3.84 0.05 15.4 0.19 30.8 0.37 46.2 0.56 14.4 0.17 28.7 0.34 43.1 0.52 1.29 0.01 2.57 0.03 3.9 0.04 89.7 1.09 89.7 1.09 117 1.48 2.74 0.04 5.48 0.08 8.21 0.11 11.6 0.15 23.1 0.33 34.7 0.86 0.79 0.03 1.58 0.06 2.4 0.1 12.6 0.64 22.1 4.85 31.3 13.5 5.75 6.71 9.4 14.3 9.26 23.2-0.52 5.44-2.03 10.7-3.42 15.9-1.06 3.99-2.07 7.98-3.09 12-0.22 0.87-0.44 1.73-0.67 2.62-2.78 10.9-5.33 21.9-7.9 32.9-1.02 4.38-2.05 8.77-3.08 13.2-0.25 1.09-0.51 2.19-0.78 3.32-2.73 11.7-5.52 23.3-8.32 35-0.38 1.56-0.38 1.56-0.76 3.15-1.75 7.27-3.49 14.5-5.24 21.8-1.86 7.71-3.71 15.4-5.57 23.1-0.23 0.98-0.47 1.96-0.71 2.97-3.46 14.4-6.9 28.8-10.3 43.3-0.2 0.85-0.4 1.7-0.61 2.57-1.03 4.36-2.07 8.73-3.1 13.1-0.21 0.87-0.41 1.75-0.63 2.65-0.42 1.76-0.84 3.53-1.25 5.29-5.08 21.4-10.2 42.8-15.5 64.2-3.21 13-6.3 26.1-9.33 39.2-15.9 68.6-15.9 68.6-29 92.8-1.01 1.89-1.97 3.79-2.92 5.71-4.47 8.87-9.84 16.4-16.1 24.1-1.03 1.39-2.05 2.79-3.07 4.19-9.88 13.2-22 25-35.3 34.6-1.53 1.11-3.03 2.23-4.54 3.36-14.7 10.6-31 19.1-48.1 25.1-1.81 0.64-3.6 1.33-5.39 2.02-22.1 8.19-46.7 10.6-70 13-2.75 0.28-5.49 0.57-8.23 0.86-5.95 0.63-11.9 1.24-17.8 1.85-9.08 0.93-18.2 1.88-27.2 2.83-20.4 2.14-40.8 4.25-61.2 6.36-11.2 1.15-22.3 2.31-33.4 3.46-1.02 0.11-2.04 0.21-3.09 0.32-5.13 0.53-10.3 1.06-15.4 1.6-4.07 0.42-8.15 0.84-12.2 1.26-34.4 3.57-68.9 7.16-103 10.8-2.44 0.25-4.87 0.51-7.31 0.77-12.5 1.3-24.9 2.61-37.4 3.92-17.4 1.83-34.8 3.66-52.2 5.48-1.6 0.17-3.19 0.34-4.79 0.51l-54.7 5.73c-0.84 0.09-1.68 0.18-2.55 0.27-8.76 0.92-17.5 1.84-26.3 2.76-21.5 2.26-43 4.52-64.6 6.78-21.4 2.24-42.9 4.49-64.3 6.74-12.8 1.35-25.6 2.69-38.5 4.04-8.84 0.93-17.7 1.85-26.5 2.78-5.12 0.54-10.2 1.07-15.4 1.61-26.4 2.78-52.8 5.44-79.3 7.98-0.14 0.77-0.29 1.53-0.43 2.32-0.68 3.16-1.83 5.82-3.16 8.77-0.51 1.17-1.03 2.34-1.57 3.55-0.27 0.61-0.54 1.22-0.82 1.85-4.57 10.3-8.8 20.4-11 31.5-0.33 1.29-0.33 1.29-0.67 2.6-5.76 24.8 1.14 50.8 13.7 72.4 2.41 3.64 5.02 6.81 8 10 0.65 0.8 1.3 1.6 1.97 2.42 16.9 20.3 41.5 28.7 67 31.6 4.35 0.25 8.69 0.27 13 0.26 1.24 0 2.48 0.01 3.76 0.01 3.41 0.01 6.83 0 10.2 0 3.73 0 7.46 0 11.2 0.01 6.52 0.01 13 0.01 19.6 0.01 9.69 0 19.4 0.01 29.1 0.02 16.3 0.01 32.6 0.02 49 0.03 22.3 0 44.6 0.02 66.8 0.04 10.4 0.01 20.8 0.02 31.2 0.03 1.04 0 2.08 0.01 3.15 0.01 24.7 0.02 49.5 0.04 74.2 0.05h3.27c17.6 0.01 35.1 0.02 52.7 0.03 16.4 0.01 32.9 0.02 49.4 0.03 1.62 0.01 1.62 0.01 3.28 0.01 24.7 0.01 49.4 0.03 74.1 0.05h3.15c10.4 0.01 20.7 0.02 31.1 0.03 22.3 0.03 44.5 0.04 66.8 0.05 16.2 0 32.4 0.01 48.6 0.03 9.64 0.01 19.3 0.02 28.9 0.01 6.43 0 12.9 0.01 19.3 0.02 3.66 0 7.33 0.01 11 0 3.95 0 7.9 0.01 11.8 0.02 1.14-0.01 2.28-0.01 3.46-0.02 11.7 0.06 21.2 2.01 30 10.2 7.42 8.05 11.6 17.7 11.2 28.7-1.04 10.6-5.33 19.3-13.4 26.3-10.7 7.61-22.2 8.23-34.9 8.21-1.23 0.01-2.46 0.01-3.72 0.01h-10.2c-3.71 0-7.42 0.01-11.1 0.01-7.36 0.01-14.7 0.01-22.1 0.01-8.82 0-17.6 0.01-26.5 0.02-21.3 0.01-42.6 0.02-64 0.02-10.1 0.01-20.2 0.01-30.3 0.01-34.6 0.02-69.1 0.03-104 0.03h-6.51-6.52-13.1-3.28c-35 0.01-70.1 0.02-105 0.05-37.1 0.02-74.1 0.03-111 0.04h-12.2-3.04c-16.1 0-32.2 0.01-48.3 0.02-16.2 0.02-32.4 0.02-48.6 0.01-9.62 0-19.2 0-28.8 0.02-6.45 0.01-12.9 0.01-19.3 0-3.66-0.01-7.32-0.01-11 0-47.1 0.16-92-9.48-128-41.4-0.88-0.76-1.75-1.53-2.65-2.31-2.48-2.2-4.92-4.43-7.35-6.69-0.6-0.54-1.19-1.07-1.8-1.63-10.1-9.55-18.1-21.5-25.2-33.4-0.34-0.57-0.69-1.14-1.04-1.73-24-41-28.5-90-16.7-136 4.48-16.3 11.4-31.6 18.7-46.8 0.56-1.21 1.12-2.42 1.68-3.64 0.49-1.01 0.98-2.02 1.48-3.07 2.37-8.56-1.44-17-4.22-25-0.79-2.28-1.56-4.55-2.33-6.83-0.87-2.56-1.73-5.12-2.6-7.67-3.79-11.1-7.5-22.3-11.2-33.5-2.06-6.19-4.12-12.4-6.18-18.6-0.8-2.37-1.59-4.75-2.38-7.12-0.37-1.11-0.74-2.23-1.12-3.38-2.89-8.67-2.89-8.67-3.73-11.2-0.52-1.57-1.05-3.14-1.57-4.72-1.21-3.62-2.42-7.25-3.63-10.9-2.08-6.25-4.16-12.5-6.25-18.7-4.4-13.1-8.79-26.3-13.1-39.5-0.28-0.87-0.56-1.73-0.85-2.62s-0.58-1.78-0.88-2.7c-6.19-19.1-12.5-38.1-18.8-57.1-0.35-1.03-0.69-2.07-1.05-3.14-3.53-10.6-7.06-21.1-10.6-31.7-6.97-20.8-13.9-41.7-20.6-62.6-4.73-14.7-9.61-29.3-14.5-43.9-2.22-6.62-4.42-13.2-6.63-19.9-1.24-3.74-2.49-7.47-3.73-11.2-0.51-1.54-1.03-3.08-1.54-4.61l-0.79-2.37c-2.5-7.51-2.5-7.51-3.37-10.1-0.59-1.76-1.17-3.52-1.76-5.28-1.49-4.46-2.98-8.93-4.46-13.4-2.75-8.23-5.49-16.4-8.24-24.7-6.15-18.4-12.2-36.8-18.2-55.3-5-15.4-10.1-30.8-15.3-46.2-2.9-8.68-5.79-17.4-8.69-26-1.53-4.59-3.06-9.19-4.59-13.8l-1.86-5.58c-0.31-0.92-0.61-1.84-0.93-2.79-0.93-2.8-1.87-5.59-2.8-8.39-0.3-0.92-0.61-1.84-0.93-2.79-0.62-1.85-1.23-3.71-1.85-5.56-1.53-4.57-3.05-9.14-4.57-13.7-2.62-7.83-5.23-15.7-7.8-23.5-1.06-3.24-2.13-6.48-3.2-9.72-0.49-1.48-0.97-2.97-1.46-4.45-2.56-7.89-5.32-15.7-8.46-23.3-0.43-1.04-0.43-1.04-0.86-2.11-2.52-6.04-5.61-11.4-9.5-16.7-0.72-0.97-1.44-1.94-2.18-2.95-15.7-20-38.7-32.2-63.8-35.6-6-0.63-12-0.61-18-0.62-1.95 0-3.9-0.01-5.85-0.02-2.08-0.01-4.16-0.01-6.23-0.02-4.36-0.01-8.71-0.03-13.1-0.05-12.4-0.06-24.7-0.12-37.1-0.15-6.84-0.02-13.7-0.05-20.5-0.09-3.61-0.02-7.22-0.03-10.8-0.04-4.04 0-8.07-0.02-12.1-0.05-1.17 0-2.35 0-3.56 0.01-12.7-0.13-23.3-2.43-32.7-11.3-6.72-7.15-10.4-16.1-11.4-25.8 0.32-9.81 4.89-19.1 11.4-26.3 10.2-9.37 22.2-10.5 35.5-10.4zm332 290c-1.33 2.1-1.33 2.1-0.21 4.96 0.43 1.29 0.87 2.57 1.31 3.85 0.24 0.69 0.47 1.39 0.71 2.11 0.79 2.32 1.58 4.64 2.37 6.96 0.56 1.64 1.11 3.28 1.67 4.92 1.15 3.41 2.3 6.81 3.45 10.2 2.51 7.39 4.98 14.8 7.45 22.2 0.24 0.72 0.48 1.44 0.72 2.18 4.57 13.7 9.05 27.4 13.5 41.1 0.34 1.05 0.68 2.09 1.03 3.17 3.43 10.5 6.85 21 10.2 31.5 4.74 14.7 9.56 29.4 14.6 44 4.42 12.8 8.7 25.6 12.9 38.5 0.43 1.33 0.43 1.33 0.87 2.7 1.2 3.68 2.39 7.36 3.58 11 3.58 11.1 7.19 22.1 10.8 33.2 0.33 1.03 0.67 2.06 1.01 3.12 4.98 15.2 10 30.5 15.1 45.7 4.06 12.2 8.06 24.3 12 36.5 3.86 12 7.77 23.9 11.8 35.8 0.25 0.73 0.49 1.47 0.74 2.22 1.8 5.37 3.59 10.7 5.39 16.1 9.17 27.4 18.2 54.8 27.1 82.3 1.47 4.53 2.94 9.06 4.41 13.6 2.82 8.69 5.64 17.4 8.46 26.1 7.8 0.16 15.4-0.3 23.2-1.14 1.17-0.12 2.35-0.24 3.56-0.37l9.69-1.02c3.49-0.38 6.98-0.74 10.5-1.11 6.05-0.63 12.1-1.27 18.1-1.91 9.68-1.02 19.4-2.04 29-3.06 1.22-0.13 1.22-0.13 2.48-0.26 3.33-0.35 6.66-0.7 10-1.05 5.09-0.53 10.2-1.07 15.3-1.6 23.6-2.48 47.2-4.93 70.9-7.36 1.15-0.11 1.15-0.11 2.31-0.23 9.15-0.94 18.3-1.88 27.4-2.81 14.4-1.48 28.8-2.95 43.2-4.43 0.74-0.08 1.48-0.16 2.24-0.23 34.4-3.54 68.8-7.15 103-10.8 33.7-3.55 67.4-7.05 101-10.4 22.8-2.29 45.5-4.65 68.3-7.07 23.4-2.48 46.8-4.9 70.2-7.28 2.23-0.23 4.46-0.46 6.7-0.68 27.3-2.78 27.3-2.78 40.5-4.12 19.6-1.99 39.3-4 59-6.06 0.71-0.07 1.43-0.15 2.17-0.22 9.42-0.99 18.8-1.99 28.2-3.02 2.7-0.29 5.4-0.58 8.1-0.86 33.4-3.54 63.2-9.74 89.5-31.9 1.3-1.07 1.3-1.07 2.63-2.17 18.6-16 31-37.4 37.7-60.8 0.3-1.04 0.6-2.08 0.91-3.16 3.26-11.5 6.11-23.1 8.91-34.7 0.57-2.32 1.13-4.63 1.69-6.94 4.25-17.5 8.43-34.9 12.6-52.4 3.56-14.9 7.18-29.7 10.8-44.5 5.32-21.6 10.6-43.3 15.8-64.9 0.63-2.63 1.27-5.25 1.9-7.88 0.16-0.65 0.32-1.31 0.48-1.99 2.47-10.2 4.94-20.4 7.42-30.6 0.57-2.35 1.14-4.7 1.71-7.05 3.1-12.7 3.1-12.7 4.44-18.2 3.53-14.5 7.04-29 10.5-43.4 0.47-1.95 0.93-3.9 1.4-5.85 0.27-1.17 0.54-2.34 0.83-3.54 0.24-1.03 0.48-2.06 0.73-3.11 0.64-2.89 0.64-2.89 0.52-6.69-23.6-0.77-47.1-1.27-70.7-1.61-4.73-0.07-9.46-0.14-14.2-0.21-8.16-0.12-16.3-0.24-24.5-0.36-11.9-0.18-23.9-0.36-35.8-0.54-18.2-0.27-36.5-0.54-54.8-0.81-26.8-0.4-53.5-0.81-80.3-1.21-9.59-0.15-19.2-0.29-28.8-0.44-1.56-0.02-1.56-0.02-3.16-0.05-75.4-1.14-151-2.26-226-3.34-23-0.33-46-0.67-69.1-1-47-0.68-94.1-1.36-141-2.04-2.79-0.05-5.59-0.09-8.38-0.13-0.71-0.01-1.42-0.02-2.15-0.03-11.3-0.16-22.7-0.33-34-0.49-44-0.64-88-1.27-132-1.91-4-0.05-8.01-0.11-12-0.17-0.99-0.01-1.98-0.03-3-0.04-16-0.23-32-0.46-47.9-0.7-16.2-0.23-32.4-0.46-48.6-0.7-9.78-0.14-19.6-0.28-29.4-0.42-6.62-0.1-13.2-0.19-19.8-0.29-3.79-0.05-7.58-0.11-11.4-0.16-4.1-0.06-8.2-0.12-12.3-0.18-1.17-0.02-2.35-0.03-3.55-0.05-7.99-0.11-16-0.14-24-0.12z"/>
<path transform="translate(1215 1245)" d="m0 0c1.26 0 2.52 0.01 3.82 0.01 39.5 0.5 75.3 15 105 40.7 1.71 1.47 3.43 2.93 5.17 4.35 30.8 25.3 48.7 66.8 52.6 106 2.93 41-6.72 83.1-32.8 115-1.12 1.41-1.12 1.41-2.26 2.84-2.21 2.75-4.47 5.46-6.74 8.16-0.7 0.84-1.4 1.67-2.11 2.53-28.4 32.9-70.3 50.1-113 53.5-41.2 2.62-82.9-10.4-114-37.4-1.78-1.53-3.59-3.01-5.43-4.47-7.08-5.73-12.8-11.9-18.4-19.1-0.96-1.13-1.91-2.26-2.87-3.39-27.3-32.3-38.2-75.8-34.9-118 3.32-33.1 15.6-64.1 37.3-89.3 2.13-2.51 4.15-5.11 6.18-7.69 4.31-5.26 9.11-9.71 14.3-14.1 0.79-0.66 1.58-1.33 2.39-2.02 30.1-24.7 66.6-38.5 106-38.3zm-70.2 106c-15.7 18.6-24.3 42.4-22.7 66.9 2.31 24.8 13.4 48.7 32.4 65.1 19.2 15.4 43.1 24.4 67.9 22.2 26.6-3.05 49.4-14.8 66.6-35.4 14.8-18.7 21.6-42.7 19.4-66.4-2.55-20.8-10.3-39.4-24.5-54.9-0.63-0.7-1.25-1.41-1.9-2.13-16.9-18-40.5-26.3-64.6-28-27.8-0.89-54.4 12-72.6 32.6z"/>
<path transform="translate(614 1282)" d="m0 0c3 2.45 6.1 4.73 9.27 6.96 0.67 0.59 0.67 0.59 1.36 1.19v2c0.54 0.2 1.09 0.4 1.65 0.6 3.32 1.98 5.53 4.77 7.97 7.71 0.79 0.94 0.79 0.94 1.59 1.89 1.61 1.92 3.2 3.86 4.79 5.8 0.47 0.57 0.94 1.14 1.42 1.74 27.1 33.5 38.2 77.5 33.8 120-4.15 35.8-18.4 65.2-41.7 92.3-1.4 1.63-2.79 3.28-4.14 4.96-4.39 5.48-9.84 9.62-15.4 13.9-1.03 0.83-2.05 1.66-3.11 2.51-7.54 6.04-15.4 11-23.9 15.5-0.94 0.52-1.88 1.04-2.85 1.58-36.7 19.6-82.9 22.7-123 11-20.2-6.36-38.7-15.5-54.9-29.1-1.73-1.45-3.49-2.87-5.25-4.28-8.86-7.23-16.3-15.3-23.5-24.2-0.72-0.89-0.72-0.89-1.46-1.79-27.6-34.3-37.2-78.7-33.1-122 3.6-29.3 15.1-59.2 34.9-81.3 2.48-2.79 4.78-5.67 7.09-8.61 26-31.9 66.6-51 107-55.2 44.2-3.21 86.6 8.1 121 36.7zm-167 61.2c-0.63 0.56-1.27 1.12-1.92 1.7-16.3 15.4-26.7 37.8-28 60.2-0.01 0.7-0.03 1.39-0.05 2.1-0.04 0.67-0.08 1.34-0.12 2.03-0.84 25.2 8.83 48.2 25.8 66.5 9.98 10.5 21.9 18.1 35.4 23.4 0.93 0.37 1.87 0.74 2.83 1.12 22.8 7.98 47.8 5.6 69.4-4.49 7.17-3.47 13.5-7.68 19.8-12.6 0.74-0.59 1.47-1.17 2.23-1.77 1.64-1.35 3.22-2.78 4.77-4.23v-2h2c10.9-11.8 18.2-26.4 22-42 0.22-0.92 0.45-1.83 0.68-2.77 2.6-12.8 2.72-27.6-0.68-40.2-0.31-1.21-0.61-2.41-0.93-3.65-6.18-22.7-20.8-42.5-41.1-54.7-13.8-7.64-28-13-44-13.6-0.68-0.04-1.35-0.08-2.04-0.12-24.9-0.8-47.6 8.64-66 25.1z"/>
</svg>
